HIERARCHY
ROOT root
{
	OFFSET	0	13.1	24.9
	CHANNELS 6  Xposition Yposition Zposition Xrotation Yrotation Zrotation
	JOINT spine_1
	{
		OFFSET	0	9.99999	0
		CHANNELS 3  Xrotation Yrotation Zrotation
		JOINT spine_2
		{
			OFFSET	0	112	-10
			CHANNELS 3  Xrotation Yrotation Zrotation
			JOINT spine_3
			{
				OFFSET	0	206.5	19.3
				CHANNELS 3  Xrotation Yrotation Zrotation
				JOINT spine_4
				{
					OFFSET	0	110.4	14.6
					CHANNELS 3  Xrotation Yrotation Zrotation
					JOINT neck_1
					{
						OFFSET	0	71.8	-50.3
						CHANNELS 3  Xrotation Yrotation Zrotation
						JOINT neck_2
						{
							OFFSET	0	86.2	-25.8
							CHANNELS 3  Xrotation Yrotation Zrotation
							JOINT head_ee
							{
								OFFSET	0	179.8	-8.7
								CHANNELS 3  Xrotation Yrotation Zrotation
								End Site
								{
									OFFSET	1	0	0
								}
							}
						}
					}
					JOINT left_clavicle
					{
						OFFSET	-43.2	22.4	-70.8
						CHANNELS 3  Xrotation Yrotation Zrotation
						JOINT left_shoulder
						{
							OFFSET	-93.9	-5.79999	48.7
							CHANNELS 3  Xrotation Yrotation Zrotation
							JOINT left_elbow
							{
								OFFSET	-291.4	-30.8	15.2
								CHANNELS 3  Xrotation Yrotation Zrotation
								JOINT left_lowarm_twist
								{
									OFFSET	-110.7	-3.89999	13.6
									CHANNELS 3  Xrotation Yrotation Zrotation
									JOINT left_hand
									{
										OFFSET	-110.7	-3.89999	13.6
										CHANNELS 3  Xrotation Yrotation Zrotation
										JOINT left_ee
										{
											OFFSET	-80.8	-5.10001	12.1
											CHANNELS 3  Xrotation Yrotation Zrotation
											End Site
											{
												OFFSET	1	0	0
											}
										}
									}
								}
							}
						}
					}
					JOINT right_clavicle
					{
						OFFSET	43.2	22.4	-70.8
						CHANNELS 3  Xrotation Yrotation Zrotation
						JOINT right_shoulder
						{
							OFFSET	93.9	-5.79999	48.7
							CHANNELS 3  Xrotation Yrotation Zrotation
							JOINT right_elbow
							{
								OFFSET	291.4	-30.8	15.2
								CHANNELS 3  Xrotation Yrotation Zrotation
								JOINT right_lowarm_twist
								{
									OFFSET	110.7	-3.89999	13.6
									CHANNELS 3  Xrotation Yrotation Zrotation
									JOINT right_hand
									{
										OFFSET	110.7	-3.89999	13.6
										CHANNELS 3  Xrotation Yrotation Zrotation
										JOINT right_ee
										{
											OFFSET	80.8	-5.10001	12.1
											CHANNELS 3  Xrotation Yrotation Zrotation
											End Site
											{
												OFFSET	1	0	0
											}
										}
									}
								}
							}
						}
					}
				}
			}
		}
	}
	JOINT left_hip
	{
		OFFSET	-82.8	-127.5	0.300001
		CHANNELS 3  Xrotation Yrotation Zrotation
		JOINT left_knee
		{
			OFFSET	-28.2	-396.7	2.2
			CHANNELS 3  Xrotation Yrotation Zrotation
			JOINT left_ankle
			{
				OFFSET	-11.7	-411.3	35.4
				CHANNELS 3  Xrotation Yrotation Zrotation
				JOINT left_toes
				{
					OFFSET	0	-60	-88.6
					CHANNELS 3  Xrotation Yrotation Zrotation
					JOINT left_foot_ee
					{
						OFFSET	-22.5	-16.5	-42.2
						CHANNELS 3  Xrotation Yrotation Zrotation
						End Site
						{
							OFFSET	1	0	0
						}
					}
				}
			}
		}
	}
	JOINT right_hip
	{
		OFFSET	82.8	-127.5	0.300001
		CHANNELS 3  Xrotation Yrotation Zrotation
		JOINT right_knee
		{
			OFFSET	28.2	-396.7	2.2
			CHANNELS 3  Xrotation Yrotation Zrotation
			JOINT right_ankle
			{
				OFFSET	11.7	-411.3	35.4
				CHANNELS 3  Xrotation Yrotation Zrotation
				JOINT right_toes
				{
					OFFSET	0	-60	-88.6
					CHANNELS 3  Xrotation Yrotation Zrotation
					JOINT right_foot_ee
					{
						OFFSET	22.5	-16.5	-42.2
						CHANNELS 3  Xrotation Yrotation Zrotation
						End Site
						{
							OFFSET	1	0	0
						}
					}
				}
			}
		}
	}
}
MOTION
Frames: 13
Frame Time: 0.02
1045.79 733.873 -1400.66 -51.8396 86.2918 48.0517 1.70174 0.196277 2.09708 1.70419 0.0624675 2.10531 1.70656 -0.319684 2.08185 1.70051 0.0130412 2.1062 -3.29612 5.79387 -6.87602 -3.00954 15.8636 -6.31524 -0.0 0.0 -0.0 -3.20665 15.6221 -3.26495 -13.8874 -41.0113 65.1624 0.198069 -5.60391 0.00969401 -46.4047 -3.65659 4.48178 0.0363463 11.538 4.9949 -0.0 0.0 -0.0 10.3494 -3.63433 -20.1384 -4.57737 17.8498 -64.9256 2.92721 55.3978 -1.53699 4.42489 -0.134753 0.548997 2.64726 15.5168 -11.2098 0.0 0.0 0.0 17.3327 9.76538 -2.58432 -22.4932 0.257698 3.42002 30.2958 19.7094 -4.03205 -38.657 0.0 0.0 -0.0 0.0 -0.0 13.9917 15.1646 -4.11175 -9.87844 -0.278986 -1.48848 23.2828 -28.9667 3.37729 6.64935 -0.0 -0.0 0.0 0.0 0.0 
1040.21 740.318 -1403.44 -60.6523 85.7928 57.3421 1.67067 0.18868 2.11002 1.67314 0.0540628 2.11774 1.67523 -0.331352 2.09237 1.66912 0.00318017 2.11843 -3.72716 6.43781 -7.27857 -3.41181 17.3311 -6.57358 -0.0 0.0 -0.0 -3.19966 14.7993 -3.41714 -15.4042 -40.5675 64.9491 0.196165 -5.55039 0.009509 -46.83 -3.70504 4.50692 0.420352 12.0186 7.63332 -0.0 0.0 -0.0 10.3097 -4.92275 -19.9539 -5.61661 17.074 -65.5154 3.13514 57.2105 -1.71001 4.52815 -0.137389 0.561925 2.94665 19.3619 -11.3884 0.0 0.0 0.0 17.2391 10.4076 -2.66351 -15.3398 0.322027 2.32502 28.3098 23.8976 -3.88514 -39.3053 0.0 0.0 -0.0 0.0 -0.0 14.2996 14.1987 -4.62806 -9.01605 -0.264907 -1.3569 24.1429 -28.9673 3.48886 6.049 -0.0 -0.0 0.0 0.0 0.0 
1033.8 742.098 -1401.31 -66.346 85.3265 63.7274 1.67722 0.270312 2.18038 1.67985 0.131055 2.19315 1.68501 -0.268916 2.18055 1.67838 0.0787501 2.19565 -3.65982 6.64937 -6.69761 -3.37098 17.2728 -5.9447 -0.0 0.0 -0.0 -3.25304 14.1008 -3.64297 -16.3228 -40.2758 65.015 0.201071 -5.68832 0.00998937 -47.0281 -3.72767 4.51851 0.723153 12.5028 9.75491 -0.0 0.0 -0.0 10.3372 -5.23782 -19.9812 -6.00167 16.6068 -64.9636 3.20859 57.8111 -1.77196 4.59414 -0.139062 0.570188 3.09188 21.0747 -11.5094 0.0 0.0 0.0 16.9793 9.74568 -2.53403 -9.99757 0.280775 1.50668 27.5035 22.8439 -3.76868 -40.1289 0.0 0.0 -0.0 0.0 -0.0 14.5723 13.4858 -5.26661 -8.35231 -0.252724 -1.25578 23.7069 -29.1685 3.43737 4.05017 -0.0 -0.0 0.0 0.0 0.0 
1028.23 745.728 -1398.92 -61.4414 84.3728 58.8705 1.73931 0.348316 2.19609 1.74197 0.207903 2.21379 1.75015 -0.194514 2.21501 1.74334 0.157658 2.21793 -1.39753 5.67932 -7.35406 -1.01946 16.0856 -7.148 -0.0 0.0 -0.0 -3.39402 13.8851 -3.91829 -16.9358 -39.7922 65.4476 0.236895 -6.69325 0.0138527 -46.978 -3.72194 4.51559 1.22204 12.2401 12.8791 -0.0 0.0 -0.0 10.2556 -6.43402 -19.7117 -5.30457 16.5821 -65.8762 2.94384 55.5492 -1.55069 4.81947 -0.144701 0.598419 3.01254 20.7962 -11.118 0.0 0.0 0.0 15.772 7.5262 -1.777 -7.15877 0.22787 1.07432 24.4958 19.01 -3.34866 -40.1814 0.0 0.0 -0.0 0.0 -0.0 14.7857 13.0241 -5.34035 -7.86541 -0.243042 -1.18169 19.9321 -28.4971 2.92249 -0.017741 0.0 0.0 0.0 0.0 0.0 
1024.75 742.328 -1397.35 -61.9847 84.2659 59.0837 1.6739 0.422805 2.38074 1.67701 0.270501 2.4028 1.68861 -0.169569 2.41202 1.68056 0.213379 2.40854 -0.595669 4.69101 -7.66096 -0.21413 14.5902 -7.71476 -0.0 0.0 -0.0 -3.44217 13.3615 -4.10416 -17.3732 -39.6775 65.4974 0.25854 -7.29848 0.0164891 -46.9237 -3.71574 4.51242 1.79407 11.9921 16.5499 -0.0 0.0 -0.0 10.0822 -6.41416 -19.3748 -4.96508 17.1938 -65.9394 2.92266 55.3561 -1.53324 4.72499 -0.14235 0.586579 3.28223 21.357 -12.6424 0.0 0.0 0.0 14.9627 6.64119 -1.09981 -4.62352 0.162561 0.690759 22.3553 14.3251 -3.04373 -40.1945 0.0 0.0 -0.0 0.0 -0.0 14.4716 12.9269 -4.88672 -7.56246 -0.2367 -1.13564 18.9665 -26.4212 2.75465 -2.8367 0.0 0.0 0.0 0.0 0.0 
1017.08 746.108 -1394.03 -61.1482 84.1951 58.226 1.6672 0.477688 2.43918 1.67046 0.321557 2.46461 1.68459 -0.130698 2.48205 1.67609 0.262813 2.47156 0.518443 3.02182 -7.93262 0.872834 11.8993 -8.33509 -0.0 0.0 -0.0 -3.3816 13.4088 -3.9939 -17.8396 -39.5649 65.7466 0.276072 -7.78754 0.0187907 -46.7044 -3.69071 4.49953 2.32309 11.977 20.0983 -0.0 0.0 -0.0 10.156 -6.79398 -19.4836 -6.54496 16.2269 -65.7274 2.81444 54.3394 -1.44476 4.55836 -0.138156 0.565707 3.26499 21.809 -12.2945 0.0 0.0 0.0 13.9872 5.65378 -0.777856 -4.1178 0.147505 0.614607 19.81 10.1636 -2.71088 -40.1209 0.0 0.0 -0.0 0.0 -0.0 14.3172 12.3781 -4.76758 -8.34064 -0.252499 -1.254 17.8213 -26.8053 2.60605 -4.38891 0.0 0.0 0.0 0.0 0.0 
1011.56 746.313 -1391.52 -58.0327 83.8609 55.0067 1.62058 0.533906 2.58054 1.62421 0.368675 2.60926 1.64141 -0.112544 2.63275 1.63187 0.304517 2.61751 1.16822 1.94395 -7.93487 1.48864 10.0387 -8.51648 -0.0 0.0 -0.0 -3.34247 13.3546 -3.93974 -18.5449 -39.3563 65.1878 0.330104 -9.28722 0.0268125 -45.7451 -3.58182 4.44208 2.89503 12.0848 24.0816 -0.0 0.0 -0.0 10.1038 -6.47695 -19.4113 -7.49237 16.8152 -65.6726 2.55534 51.6832 -1.23775 3.92131 -0.121563 0.486022 3.37826 21.8924 -13.0104 0.0 0.0 0.0 13.5387 1.94038 -0.910053 -4.72329 0.165452 0.705797 20.7226 5.05602 -2.82159 -39.3961 0.0 0.0 -0.0 0.0 -0.0 14.1278 12.122 -4.40137 -9.11873 -0.266688 -1.37256 19.439 -25.996 2.81076 -4.40111 0.0 0.0 0.0 0.0 0.0 
1003.65 743.836 -1391.74 -61.4814 84.1148 58.1907 1.65443 0.50601 2.6817 1.65837 0.334405 2.70844 1.67455 -0.162772 2.72413 1.66429 0.269334 2.71567 -0.00484145 1.43997 -7.81073 0.270168 8.95925 -8.28236 -0.0 0.0 -0.0 -3.26504 12.6148 -3.95744 -19.3675 -40.4387 63.9057 0.333895 -9.392 0.0274278 -43.8856 -3.37355 4.32555 3.47619 10.5613 27.7656 -0.0 0.0 -0.0 10.0302 -7.17488 -19.2038 -8.16854 16.872 -65.8496 2.37598 49.6406 -1.099 3.68501 -0.115182 0.456511 3.38469 21.6087 -13.2008 0.0 0.0 0.0 13.1541 1.75556 -0.849919 -4.92324 0.171166 0.735952 22.0115 2.26441 -2.98683 -39.4853 0.0 0.0 -0.0 0.0 -0.0 13.9914 12.8925 -4.32687 -9.89215 -0.279194 -1.49058 18.3989 -24.4212 2.64782 -6.42016 0.0 0.0 0.0 0.0 0.0 
998.687 743.857 -1392.0 -56.4309 83.7275 53.0817 1.67318 0.517918 2.68764 1.67713 0.345912 2.71512 1.69388 -0.151734 2.73284 1.68357 0.281608 2.72253 0.891876 1.20584 -7.29807 1.13778 8.1881 -7.84528 -0.0 0.0 -0.0 -3.49997 12.9506 -4.28428 -18.6998 -39.9537 63.9625 0.433157 -12.1107 0.04595 -43.3866 -3.31832 4.29314 3.56933 11.4853 28.7402 -0.0 0.0 -0.0 10.2004 -7.13964 -19.5369 -8.7901 17.1632 -66.5528 2.17214 47.0909 -0.946615 3.38565 -0.106924 0.419163 3.30437 21.3873 -12.7755 0.0 0.0 0.0 13.7718 0.969353 -0.730523 -5.75974 0.19393 0.862307 21.2702 1.40039 -2.90074 -39.7184 0.0 0.0 -0.0 0.0 -0.0 13.6806 12.7863 -4.27532 -10.0201 -0.281109 -1.51012 18.4445 -23.3911 2.63971 -6.86713 0.0 0.0 0.0 0.0 0.0 
994.318 742.3 -1391.83 -63.6677 84.1107 60.4182 1.63997 0.480698 2.83501 1.6444 0.299401 2.85982 1.65972 -0.225482 2.86659 1.64833 0.229881 2.86624 0.928812 1.97103 -6.33979 1.14363 8.74631 -6.73033 -0.0 0.0 -0.0 -3.46145 12.2873 -4.35411 -18.1688 -39.2278 63.9536 0.465474 -12.9847 0.0529712 -42.9643 -3.27179 4.26534 3.81295 11.5417 30.5712 -0.0 0.0 -0.0 10.2155 -7.18835 -19.5614 -9.89638 17.6534 -66.8585 1.94945 43.9956 -0.787605 3.30713 -0.104725 0.409374 3.38342 21.55 -13.2227 0.0 0.0 0.0 13.8882 0.147433 -0.969266 -6.27452 0.207021 0.940221 21.6494 -1.44123 -2.96486 -39.6243 0.0 0.0 -0.0 0.0 -0.0 13.4674 13.2228 -4.25855 -10.7378 -0.291043 -1.61979 19.0278 -22.476 2.70464 -6.68796 0.0 0.0 0.0 0.0 0.0 
989.566 740.572 -1390.16 -60.5233 83.6257 56.9772 1.75342 0.567877 2.99213 1.75832 0.376418 3.02217 1.77849 -0.172876 3.04059 1.76572 0.309272 3.02977 -0.347927 2.41955 -7.03674 -0.0938822 10.0466 -7.30374 -0.0 0.0 -0.0 -3.27895 12.519 -3.99979 -17.7534 -39.3239 63.6286 0.446709 -12.4779 0.0488357 -42.5693 -3.22846 4.23902 4.09206 12.3442 32.9366 -0.0 0.0 -0.0 10.2808 -7.53345 -19.6536 -10.737 16.7845 -66.7498 1.6461 39.1918 -0.586054 3.08382 -0.0984008 0.381551 3.40453 22.3861 -12.929 0.0 0.0 0.0 13.7847 -0.492004 -0.768043 -9.56356 0.274075 1.44042 27.6663 -4.09243 -3.69479 -38.1908 0.0 0.0 -0.0 0.0 -0.0 13.2048 13.3178 -3.97775 -9.876 -0.278949 -1.48811 21.5643 -23.3161 3.04517 -7.18329 0.0 0.0 0.0 0.0 0.0 
983.861 741.799 -1390.72 -63.6198 83.7278 60.0103 1.82306 0.529673 2.94394 1.82782 0.341354 2.97165 1.84571 -0.194825 2.98483 1.83339 0.278803 2.97816 -0.960212 2.77092 -6.4757 -0.737372 10.1871 -6.58957 -0.0 0.0 -0.0 -3.16576 11.4884 -4.00955 -17.1763 -39.5367 63.1842 0.469579 -13.0952 0.0538973 -41.8072 -3.14538 4.18741 4.23807 11.9272 33.9476 -0.0 0.0 -0.0 10.3869 -6.71722 -19.9413 -12.4531 16.6465 -66.9236 1.39358 34.6169 -0.434296 2.6812 -0.0867221 0.331447 3.49318 22.6344 -13.3919 0.0 0.0 0.0 14.2647 -0.313738 -0.88988 -11.3976 0.298963 1.72073 29.9886 -6.37649 -3.98087 -37.2056 0.0 0.0 -0.0 0.0 -0.0 12.886 13.8495 -3.93924 -9.58515 -0.27442 -1.44371 22.1601 -23.0796 3.11744 -7.72748 0.0 0.0 0.0 0.0 0.0 
981.158 739.659 -1392.33 -69.8202 83.9461 66.1878 1.87294 0.397259 3.00114 1.87792 0.205572 3.02031 1.88877 -0.335046 3.00871 1.87617 0.144105 3.02386 -0.634973 3.31142 -7.35936 -0.333441 11.8832 -7.52426 -0.0 0.0 -0.0 -2.97598 9.73446 -4.01534 -16.6468 -39.7846 62.6827 0.466388 -13.0093 0.0531768 -40.839 -3.04083 4.12026 4.39708 11.7686 35.1557 -0.0 0.0 -0.0 10.3055 -8.88596 -19.5578 -13.1465 15.6674 -67.1703 1.31135 33.0063 -0.388533 4.58951 -0.138945 0.569607 3.17043 22.813 -11.1474 0.0 0.0 0.0 14.6748 -0.829608 -1.09281 -12.2543 0.30751 1.85188 29.2855 -6.02854 -3.89936 -37.7196 0.0 0.0 -0.0 0.0 -0.0 12.2663 14.0912 -3.32958 -9.58288 -0.274384 -1.44337 24.216 -23.1286 3.37602 -7.93535 0.0 0.0 0.0 0.0 0.0 
